<?xml version="1.0" encoding="utf-8"?>
<!-- Generator: Adobe Illustrator 16.0.0, SVG Export Plug-In . SVG Version: 6.00 Build 0)  -->
<!DOCTYPE svg PUBLIC "-//W3C//DTD SVG 1.1//EN" "http://www.w3.org/Graphics/SVG/1.1/DTD/svg11.dtd">
<svg version="1.1" id="Capa_1" xmlns="http://www.w3.org/2000/svg" xmlns:xlink="http://www.w3.org/1999/xlink" x="0px" y="0px"
	 width="960px" height="2000px" viewBox="0 0 960 2000" enable-background="new 0 0 960 2000" xml:space="preserve">
<path fill="#FFCC00" d="M471.726,1181.033c-24.886,0-42.573,17.688-42.573,43.521c0,24.848,17.223,43.502,42.573,43.502
	c26.298,0,43.037-18.654,43.037-43.502C514.261,1198.721,497.503,1181.033,471.726,1181.033z"/>
<path fill="#FFCC00" d="M460.155,718.007c-59.285,0-108.56,16.674-139.534,34.225l26.159,69.36
	c21.712-15.016,55.157-25.092,82.72-25.092c41.766,0.878,104,14,104,72.791c0,27.628-21.776,55.157-48.559,87.79
	c-37.573,44.333-51.977,86.928-49.441,129.54l0.813,21.744h70.679v-15.049c-0.813-37.639,12.579-70.271,42.611-104.496
	c31.82-35.104,71.863-76.901,71.863-140.444C621.466,778.981,570.566,718.007,460.155,718.007z"/>
<g>
	<path fill="none" stroke="#FFCC00" stroke-width="54" stroke-linejoin="round" stroke-miterlimit="10" d="M928.5,1192.484
		c0,139.7-114.3,254-254,254h-385c-139.7,0-254-114.3-254-254v-385c0-139.7,114.3-254,254-254h385c139.7,0,254,114.3,254,254
		V1192.484z"/>
</g>
</svg>
