<?xml version="1.0" encoding="utf-8"?>
<!-- Generator: Adobe Illustrator 16.0.0, SVG Export Plug-In . SVG Version: 6.00 Build 0)  -->
<!DOCTYPE svg PUBLIC "-//W3C//DTD SVG 1.1//EN" "http://www.w3.org/Graphics/SVG/1.1/DTD/svg11.dtd">
<svg version="1.1" id="Layer_1" xmlns="http://www.w3.org/2000/svg" xmlns:xlink="http://www.w3.org/1999/xlink" x="0px" y="0px"
	 width="960px" height="2000px" viewBox="0 0 960 2000" enable-background="new 0 0 960 2000" xml:space="preserve">
<g>
	<path fill-rule="evenodd" clip-rule="evenodd" fill="#FFCC00" d="M47.828,1274.579c5.218-21.808,18.143-39.761,29.433-58.496
		c113.313-188.032,226.732-376.001,340.012-564.052c15.63-25.947,37.765-41.23,68.365-41.823
		c31.301-0.605,54.749,13.806,70.828,40.418c33.555,55.542,67.073,111.102,100.576,166.673
		c85.013,141.009,170.096,281.974,254.822,423.155c6.341,10.565,10.055,22.713,14.989,34.124c0,8.014,0,16.024,0,24.036
		c-0.501,0.981-1.232,1.91-1.47,2.949c-9.157,39.88-39.103,63.996-79.778,64.131c-17.733,0.058-35.469,0.011-53.202,0.011
		c-220.815,0-441.634,0.011-662.451-0.013c-36.977-0.005-66.598-20.347-77.875-53.334c-1.551-4.534-2.84-9.161-4.249-13.744
		C47.828,1290.604,47.828,1282.593,47.828,1274.579z M487.238,1308.703c117.567,0,235.135,0,352.7-0.007
		c3.145,0,6.318,0.182,9.432-0.149c12.012-1.283,21.422-11.288,20.026-22.562c-0.671-5.417-3.343-10.898-6.221-15.684
		c-75.576-125.624-151.293-251.159-226.995-376.709c-42.649-70.729-85.359-141.42-127.904-212.209
		c-4.538-7.549-10.073-13.432-19.145-14.123c-11.114-0.846-17.667,5.723-23.078,14.707
		c-93.019,154.486-186.17,308.893-279.29,463.316c-25.68,42.582-51.396,85.145-77.017,127.76
		c-7.446,12.389-5.709,25.396,5.097,31.542c4.902,2.786,11.363,3.944,17.12,3.952
		C250.389,1308.757,368.814,1308.703,487.238,1308.703z"/>
	<path fill-rule="evenodd" clip-rule="evenodd" fill="#FFCC00" d="M452.05,985.496c-1.011-34.313-2.134-68.623-2.982-102.942
		c-0.458-18.504,6.046-28.664,21.169-34.226c17.822-6.556,39.809-2.583,48.702,10.5c4.037,5.939,6.564,14.285,6.412,21.468
		c-0.928,44.328-2.833,88.637-4.379,132.952c-0.901,25.734-1.861,51.463-2.564,77.2c-0.415,15.112-5.798,23.213-20.583,26.047
		c-7.864,1.507-16.552,1.146-24.435-0.477c-11.615-2.388-16.696-10.304-17.066-22.46c-1.089-36.031-2.237-72.061-3.362-108.089
		C452.658,985.478,452.354,985.487,452.05,985.496z"/>
	<path fill-rule="evenodd" clip-rule="evenodd" fill="#FFCC00" d="M447.459,1195.488c0.105-22.853,18.443-41.012,41.023-40.621
		c21.856,0.379,40.136,19.181,39.997,41.136c-0.139,21.8-18.966,40.725-40.51,40.719
		C465.451,1236.717,447.357,1218.3,447.459,1195.488z"/>
</g>
</svg>
