<?xml version="1.0" encoding="utf-8"?>
<!-- Generator: Adobe Illustrator 16.0.0, SVG Export Plug-In . SVG Version: 6.00 Build 0)  -->
<!DOCTYPE svg PUBLIC "-//W3C//DTD SVG 1.1//EN" "http://www.w3.org/Graphics/SVG/1.1/DTD/svg11.dtd">
<svg version="1.1" id="Capa_1" xmlns="http://www.w3.org/2000/svg" xmlns:xlink="http://www.w3.org/1999/xlink" x="0px" y="0px"
	 width="595.279px" height="841.89px" viewBox="0 0 595.279 841.89" enable-background="new 0 0 595.279 841.89"
	 xml:space="preserve">
<circle fill="#FFCC00" cx="297.64" cy="563.371" r="29.066"/>
<path fill="#FFCC00" d="M297.64,123.305C133.143,123.305,0,256.426,0,420.945c0,164.498,133.12,297.64,297.64,297.64
	c164.497,0,297.64-133.121,297.64-297.64C595.28,256.448,462.159,123.305,297.64,123.305z M297.64,672.08
	c-138.794,0-251.134-112.322-251.134-251.134c0-138.795,112.321-251.134,251.134-251.134c138.795,0,251.134,112.321,251.134,251.134
	C548.774,559.74,436.453,672.08,297.64,672.08z"/>
<path fill="#FFCC00" d="M297.64,272.706c-51.287,0-93.013,41.726-93.013,93.013c0,12.843,10.411,23.253,23.254,23.253
	s23.253-10.411,23.253-23.253c0-25.644,20.862-46.506,46.506-46.506s46.506,20.863,46.506,46.506s-20.862,46.506-46.506,46.506
	c-12.843,0-23.253,10.411-23.253,23.253v58.133c0,12.844,10.41,23.254,23.253,23.254s23.253-10.41,23.253-23.254v-37.822
	c40.072-10.352,69.76-46.809,69.76-90.07C390.653,314.432,348.927,272.706,297.64,272.706z"/>
</svg>
